# xmcd
#
# Track frame offsets:
# 150
# 14988
# 37384
# 47678
# 69347
# 83614
# 100043
# 123938
# 138646
# 158626
# 178652
# 192495
# 208977
#
# Disc length: 3029 seconds
#
#
# Revision: 0
# Processed by: cddbd v1.5.1PL2 Copyright (c) Steve Scherf et al.
# Submitted via: FreeRIP 2.945 
#
DISCID=bd0bd30d
DTITLE=Various Artist - The Linedance Way
DYEAR=2005
DGENRE=Dance
TTITLE0=I Feel Lucky - Jette Torp
TTITLE1=Ain't No Stopping Us Now - Zindy
TTITLE2=Sweet Nothin's - På Slaget 12
TTITLE3=I Wish - Zindy
TTITLE4=In Dreams - Big Fat Snake
TTITLE5=Linedance Fever - Kandis
TTITLE6=Still In Love With You - Zindy
TTITLE7=You're The one - Anca
TTITLE8=Gospel Truth - Big Fat Snake
TTITLE9=It Takes Two - Zindy feat. James Sampson
TTITLE10=Do You Love me - På Slaget 12
TTITLE11=Linedancebølgen - Kandis
TTITLE12=At The Linedance - Tamra Rosanes
EXTD=From the DVD The Linedance Way, Benny Ray
EXTT0=
EXTT1=
EXTT2=
EXTT3=
EXTT4=
EXTT5=
EXTT6=
EXTT7=
EXTT8=
EXTT9=
EXTT10=
EXTT11=
EXTT12=
PLAYORDER=
